/* XPM */
static char *_a0ac16a0c9246049d77b9f1c8516986waQ9HI4RINgpNHoi[] = {
/* columns rows colors chars-per-pixel */
"32 32 102 2 ",
"   c None",
".  c #3E3B3C",
"X  c #413B3B",
"o  c #493B3A",
"O  c #4B3A3A",
"+  c #4A3B3A",
"@  c #4D3A39",
"#  c #4D3E3E",
"$  c #543A38",
"%  c #533D3B",
"&  c #583A38",
"*  c #673935",
"=  c #683935",
"-  c #693935",
";  c #6F3B35",
":  c #783932",
">  c #4D403F",
",  c #4D4647",
"<  c #4E4848",
"1  c #524040",
"2  c #794742",
"3  c #794E4A",
"4  c #7A6765",
"5  c #7B6D6C",
"6  c #87382F",
"7  c #8D382E",
"8  c #8D382F",
"9  c #9A372C",
"0  c #92382E",
"q  c #96382D",
"w  c #A3372B",
"e  c #A4372B",
"r  c #AA3729",
"t  c #AC3729",
"y  c #AB3B2F",
"u  c #B73627",
"i  c #B13728",
"p  c #AE3D30",
"a  c #E7341F",
"s  c #F2331C",
"d  c #F3331D",
"f  c #F3341C",
"g  c #F3341D",
"h  c #F2351E",
"j  c #F3351E",
"k  c #F2361F",
"l  c #C33625",
"z  c #C53625",
"x  c #C63625",
"c  c #CE3523",
"v  c #D43522",
"b  c #D93521",
"n  c #D93522",
"m  c #D93C2A",
"M  c #EF3E29",
"N  c #EE3F2A",
"B  c #F23620",
"V  c #F13922",
"C  c #F13B25",
"Z  c #F03D27",
"A  c #F03D28",
"S  c #9F4238",
"D  c #C84B3D",
"F  c #EF402B",
"G  c #ED4632",
"H  c #ED4633",
"J  c #EC4735",
"K  c #EC4835",
"L  c #EC4936",
"P  c #984E46",
"I  c #99544D",
"U  c #985851",
"Y  c #9A7E7B",
"T  c #DC5646",
"R  c #D65B4D",
"E  c #E85341",
"W  c #E65949",
"Q  c #E45B4B",
"!  c #E65B4B",
"~  c #E45E4E",
"^  c #E45E4F",
"/  c #E35F50",
"(  c #E46151",
")  c #E46052",
"_  c #E0675A",
"`  c #E06A5D",
"'  c #F56250",
"]  c #F66250",
"[  c #D76C60",
"{  c #DA7A6F",
"}  c #DA7970",
"|  c #DA7A70",
" . c #DB7A70",
".. c #F77666",
"X. c #F77667",
"o. c #9B8785",
"O. c #DBADA7",
"+. c #DCBCB9",
"@. c #FBC4BD",
"#. c #FCC4BD",
"$. c #FCD7D2",
"%. c #FDD7D2",
/* pixels */
"                                                                ",
"                                                                ",
"                                                                ",
"                                                                ",
"                                                                ",
"                                                                ",
"                                                                ",
"                                                                ",
"                                    f                           ",
"                                      k                         ",
"       .G k f f W { ! g g f K _ g f N ` g f f f g f f g  .      ",
"    { J k d d k V Z y $ $ $ % 1 $ $ ; m = g k d g g g g A  .    ",
"   .G B g g 0 & & e B v v b b b b b z $ X * B d f f k d g A  .  ",
"  F k g g 8 o . X q g g d d g g g g v . . X - d f f f k g g F   ",
"  $.$.$.$.5 X . . o.$.$.$.$.$.$.$.$.+.. . . < $.$.$.%.%.%.%.%.  ",
"  ] ] ] ] 2 . . . P ] ] ] ] ] ] ] ] R . . . % ] ] ] ] ] ] ] ]   ",
"  f f f f : . . . q g g g g g g g g v . . . @ f f f f f B f f   ",
"  #.#.#.#.4 . . . Y #.#.#.#.#.#.#.#.O.. . . , #.#.%.#.#.#.#.#.  ",
"  X.X.X.X.3 . . . U X.X.X.X.X.X.X.X.[ . . . > X.] X.X.X.X.X.X.  ",
"  ) C B f z = . . q g g g g g g g g v . . o u f B f B f g g )   ",
"    / A k f z r r c z 6 6 6 6 6 6 6 8 9 @ i f f g g g g g /     ",
"      / A k f f L ! D w e e S I w e p T t k f k g g g g !       ",
"                                    N E                         ",
"                                                                ",
"                                                                ",
"                                                                ",
"                                                                ",
"                                                                ",
"                                                                ",
"                                                                ",
"                                                                ",
"                                                                "
};
