/* XPM */
static char *_2a733f9a5664014f7a34a357a94ea86fwSHYgUgvkCVw0L5[] = {
/* columns rows colors chars-per-pixel */
"32 32 160 2 ",
"   c None",
".  c #363C3F",
"X  c #11314F",
"o  c #12314F",
"O  c #16324D",
"+  c #1B344B",
"@  c #1C344B",
"#  c #0F3050",
"$  c #0E3051",
"%  c #0F3051",
"&  c #0F3151",
"*  c #0F3152",
"=  c #103150",
"-  c #113150",
";  c #133353",
":  c #143555",
">  c #163654",
",  c #1E3B58",
"<  c #1E3E5C",
"1  c #243747",
"2  c #283845",
"3  c #293845",
"4  c #213649",
"5  c #303A42",
"6  c #383E41",
"7  c #3C334E",
"8  c #203D59",
"9  c #223E59",
"0  c #233E59",
"q  c #7F3849",
"w  c #3A4043",
"e  c #3C4245",
"r  c #3F4548",
"t  c #25405A",
"y  c #21405E",
"u  c #22415F",
"i  c #24415D",
"p  c #24425E",
"a  c #29435C",
"s  c #244260",
"d  c #274460",
"f  c #2C4760",
"g  c #2C4863",
"h  c #2E4B67",
"j  c #344A60",
"k  c #374C62",
"l  c #344F68",
"z  c #3A5670",
"x  c #404548",
"c  c #43494C",
"v  c #444A4D",
"b  c #454E54",
"n  c #484E51",
"m  c #4A4F52",
"M  c #555A5D",
"N  c #415366",
"B  c #465668",
"V  c #505D6C",
"C  c #535F6D",
"Z  c #465B70",
"A  c #405A74",
"S  c #5C6164",
"D  c #56616F",
"F  c #5D666D",
"G  c #4A637B",
"H  c #4F6579",
"J  c #4E677E",
"K  c #5C6671",
"L  c #5B6974",
"P  c #5C6A79",
"I  c #616669",
"U  c #74797B",
"Y  c #777C7F",
"T  c #953948",
"R  c #994856",
"E  c #98505D",
"W  c #AA6874",
"Q  c #506880",
"!  c #5F758A",
"~  c #667482",
"^  c #667685",
"/  c #667788",
"(  c #65798C",
")  c #687C8F",
"_  c #677C90",
"`  c #697E91",
"'  c #AD7983",
"]  c #B27A84",
"[  c #7B8082",
"{  c #7F8486",
"}  c #708396",
"|  c #7C8D9D",
" . c #639BFF",
".. c #808587",
"X. c #878A8E",
"o. c #858290",
"O. c #8C8F93",
"+. c #818F9C",
"@. c #919597",
"#. c #939799",
"$. c #95999B",
"%. c #989D9E",
"&. c #AC8B91",
"*. c #8193A2",
"=. c #8895A1",
"-. c #8D9BA7",
";. c #919BA3",
":. c #9B9EA1",
">. c #9B9FA1",
",. c #989EA2",
"<. c #9AA8B4",
"1. c #A1A5A8",
"2. c #A3A7A9",
"3. c #A6A8A9",
"4. c #A8ACAD",
"5. c #BEA5AC",
"6. c #B8A9AD",
"7. c #A5AFB7",
"8. c #A1ADB8",
"9. c #A2AEB8",
"0. c #B2ADB0",
"q. c #ACB0B2",
"w. c #AEB2B3",
"e. c #B2B6B9",
"r. c #B3B7B9",
"t. c #B5B8BA",
"y. c #B7BCBF",
"u. c #91A4C1",
"i. c #ABB6C0",
"p. c #A8B6CB",
"a. c #B5BFC8",
"s. c #97B3E0",
"d. c #86B0F8",
"f. c #93B7F6",
"g. c #BFC2C5",
"h. c #BDC4C8",
"j. c #BDC6CC",
"k. c #C0C4C5",
"l. c #C2C5C7",
"z. c #C4C7C9",
"x. c #C7CBCC",
"c. c #D2C1C5",
"v. c #D3C6CA",
"b. c #C4CBD1",
"n. c #CCCFD1",
"m. c #D8CED1",
"M. c #CBD1D6",
"N. c #CFD5D9",
"B. c #D4D7D8",
"V. c #D5D9DA",
"C. c #D7DADB",
"Z. c #D2D8DF",
"A. c #C8D6EC",
"S. c #D2DCEA",
"D. c #E1E1E2",
"F. c #E0E3E5",
"G. c #E1E5E7",
"H. c #E2E5E6",
"J. c #E3E6E6",
"K. c #E3E6E7",
/* pixels */
"                                                                ",
"                                                                ",
"                                                                ",
"                                                                ",
"                                                                ",
"                                                                ",
"                                                                ",
"                                                                ",
"                                    6.                          ",
"                                  A o.&.                        ",
"    J.F.*.*.*.| 1 1 1 4 X 1 1 1 1 1 L 7.} } } } } } z i.        ",
"  J._ _ _ _ ` ..#.x >.,.-.>.>.>.{ M @.F + * $ $ * $ $ J j.      ",
"  ] $ $ $ $ X 6 [ 4.K.K.K.K.S.f.s.$.I . . + $ $ j 0 $ * J       ",
"  7 $ V $ $ 3 . c K.K.K.K.K.A. .d.q.. . . 1 $ $ 0 B ~ d * a.    ",
"  * D g.C # . . c K.K.K.K.K.A. .d.w.. . . 4 $ ( G +.q.l * b.    ",
"  * z.e.a # . . c K.K.K.K.K.Z.u.p.q.. . . 4 $ h / h.C.;.i b.    ",
"  - K.1.$ # . . c K.K.K.K.J.C.2.t.w.6 . . 1 * $ ^ n.K.r.g b.    ",
"  # O.B.K X . . c K.K.K.K.J.v.E ' w.. . . 1 # ` / 9.k.H : b.    ",
"  * 8 X.8 # . . c K.K.K.K.K.c.T W w.. . . 1 $ s < P ,.l * b.    ",
"  q $ , $ $ o . c K.K.K.K.K.c.T W q.. . . 4 $ $ N k i : *       ",
"  m.* $ * $ X r z.C J.J.K.K.D.m.0.U %.. 3 - $ $ : - $ * 9.      ",
"    M.M.M.M.M.x.n 6 n m f m m m c r Y =.X * $ * - $ $ <.        ",
"        u u u u o o o X - - - - X o Z y.B.N.N.N.N.N.            ",
"                                    5.R                         ",
"                                    3.                          ",
"                                                                ",
"                                                                ",
"                                                                ",
"                                                                ",
"                                                                ",
"                                                                ",
"                                                                "
};
