/* XPM */
static char *_e222dac07f64908f8f9045e8acd86dbA7B07x523ApL82ci[] = {
/* columns rows colors chars-per-pixel */
"32 32 77 1 ",
"  c #0A060A",
". c #0D080E",
"X c #0F0A11",
"o c #120C14",
"O c #190C15",
"+ c #150E19",
"@ c #1A0F1A",
"# c #121017",
"$ c #15121B",
"% c #1A121D",
"& c #20121E",
"* c #1C1522",
"= c #1E1A25",
"- c #221625",
"; c #211B26",
": c #231728",
"> c #241B2B",
", c #291B2D",
"< c #2C1E33",
"1 c #2A222E",
"2 c #262232",
"3 c #2A2335",
"4 c #2E2936",
"5 c #2C2739",
"6 c #2C283A",
"7 c #302038",
"8 c #31213A",
"9 c #32233B",
"0 c #33273B",
"q c #32253D",
"w c #33263E",
"e c #33293C",
"r c #30283E",
"t c #34283C",
"y c #342C3E",
"u c #342740",
"i c #332B42",
"p c #342841",
"a c #352941",
"s c #362B43",
"d c #312C41",
"f c #332E43",
"g c #372E41",
"h c #362B44",
"j c #362C44",
"k c #372E46",
"l c #3A2D43",
"z c #382F48",
"x c #373144",
"c c #363047",
"v c #393044",
"b c #373148",
"n c #373149",
"m c #383049",
"M c #393149",
"N c #39334B",
"B c #3D3348",
"V c #3E344A",
"C c #3D364A",
"Z c #3A334C",
"A c #3A344D",
"S c #3B344D",
"D c #3B354E",
"F c #3C354D",
"G c #3F394B",
"H c #3D3750",
"J c #3F3951",
"K c #41374D",
"L c #43394E",
"P c #403951",
"I c #433D53",
"U c #453D52",
"Y c #463E54",
"T c #494257",
"R c #4A4357",
"E c #4A4458",
"W c #4C4559",
/* pixels */
"DDF#JDDDSHSX888:6HZSMo88<8888$M<",
"LLKoBLLLLLBozHZ2<czzholFFZZFloDF",
"XXX%o .Xo o%XoX+ ooXX%X.Xoo o*o$",
"8888<%<83@qMzMMhX88<888%<88+cDDH",
"DDDDF=<88%eDZNZcozHZHZS=cHZ*<sss",
"o.$*%;**%$+$#* *>*$X$$%:**$@+%$$",
"u>iZHHZDH=DHHH*ZZHZ2FPPPJJK;YPJY",
"f**<<2<<<o6GFb+ifff*;383333o<35f",
"2*22323>o>--*:,***:%635333o<3323",
"H>kIIIIc>DDFHHHHHHH>MEWERs4YLIYI",
"*%*>--,*O22223233<3%*-:*,%O;;*=3",
"ccckMM#bbbbbccb>><<<<<<<occccbbc",
"YYYYYFoPYYYYYYY,uMzzbkbcozHkZHZZ",
"o+oo+oOooooo+*Oo$=*****ooo++oo+@",
"FDHZZzoZJDb@o*58:=usuus8o8888<8<",
"DFZHHZ$FHHHoc;Hzi3ZZZHFHokzHZHHH",
"e88887oKUIBof>ZHi<ZHFDDD$ZHHZHHZ",
"XoooooOooXoO O+ooo#o$oooOo$oo;$o",
"DDFoBFSSZZZo<85:5HHDMo855878<Xhh",
"KLFoBKKKKPHXZJH3<kkbsokHZDFZZ#ZH",
"XXX&X ..X X%X$o$ XXXX*. Xoo o-oo",
"88885*<78@wzcHHZ+<55888%<8<+HHHH",
"DFDDD=<37%wFNii6XcAAFFF=<85+<ipp",
"$X$**>***%+*$* *<**X*>=3;;=#****",
"q>iDDDDDZ=FFZF$JDDC2LWWWEWE;IHPR",
"f**<,<><<oqCFvOedei*-<<<<3,o<<3;",
"5*365662o>:;>>,>>>>%e65554Oe5555",
"D;lIIYIy<ZHZFDDDDDD>cRWWEt4YYYIY",
"*%****<*O2222223222+*---<*O***-*",
"MMMMbbobMbbbccM*><<<<<<<obMbbbbZ",
"FHJDDL$JHHDJJFF0<88q5888+FZZZZHH",
"lklll0.hlllllll-5HFFDDDhXqpppupp"
};
